<?xml version="1.0" standalone="no"?>
<!DOCTYPE svg PUBLIC "-//W3C//DTD SVG 20010904//EN"
 "http://www.w3.org/TR/2001/REC-SVG-20010904/DTD/svg10.dtd">
<svg version="1.0" xmlns="http://www.w3.org/2000/svg"
 width="1024.000000pt" height="1024.000000pt" viewBox="0 0 1024.000000 1024.000000"
 preserveAspectRatio="xMidYMid meet">

<g transform="translate(0.000000,1024.000000) scale(0.100000,-0.100000)"
fill="#000000" stroke="none">
<path d="M3115 6962 c-153 -72 -166 -275 -25 -368 83 -55 191 -40 264 35 91
93 72 253 -39 321 -51 32 -146 37 -200 12z"/>
<path d="M2791 6594 c-152 -45 -334 -128 -419 -192 -31 -23 -33 -26 -18 -41
15 -15 20 -14 64 12 144 86 366 176 474 192 61 9 76 19 59 39 -18 22 -61 19
-160 -10z"/>
<path d="M3456 6604 c-4 -9 -5 -18 -4 -20 2 -1 43 -12 93 -23 176 -42 398
-147 545 -257 69 -52 100 -62 100 -31 0 23 -130 118 -260 190 -86 47 -246 111
-347 136 -98 25 -119 26 -127 5z"/>
<path d="M1997 6490 c-79 -24 -140 -109 -141 -195 -1 -72 10 -101 56 -151 134
-146 368 -53 368 146 0 142 -142 242 -283 200z"/>
<path d="M3190 6381 c0 -75 3 -91 15 -91 13 0 15 14 13 87 -2 58 -7 88 -15 91
-10 3 -13 -19 -13 -87z"/>
<path d="M2938 6440 c-133 -28 -242 -67 -361 -128 -118 -60 -270 -176 -275
-207 -2 -13 15 -37 47 -69 l51 -50 42 32 c211 159 349 223 566 261 l97 17 0
80 0 79 -40 2 c-22 1 -79 -6 -127 -17z"/>
<path d="M3302 6378 l3 -82 70 -12 c106 -18 185 -40 279 -80 88 -37 228 -117
279 -160 l29 -24 26 22 c15 13 42 40 61 61 l35 38 -30 25 c-56 48 -195 136
-267 169 -136 62 -362 125 -452 125 l-36 0 3 -82z"/>
<path d="M3834 5783 l-623 -628 -190 189 c-104 103 -194 187 -199 185 -24 -9
-232 -221 -232 -236 0 -16 537 -555 587 -589 18 -13 25 -13 47 -2 15 8 291
277 614 598 323 322 651 648 730 724 78 77 142 147 142 155 0 19 -219 231
-239 231 -8 0 -295 -282 -637 -627z"/>
<path d="M5583 6230 c-121 -26 -193 -105 -193 -212 0 -30 9 -71 19 -94 32 -71
89 -102 273 -149 81 -20 110 -45 106 -87 -5 -47 -44 -71 -115 -71 -76 1 -126
23 -155 67 -13 20 -29 36 -37 36 -15 0 -111 -68 -111 -79 0 -4 13 -28 29 -53
36 -57 109 -95 204 -106 172 -21 298 37 332 152 18 59 18 79 4 129 -23 85 -93
130 -260 168 -108 25 -145 52 -134 97 9 37 21 49 62 63 58 19 118 4 164 -42
l40 -40 32 20 c18 11 43 31 56 45 23 24 23 27 8 50 -21 32 -73 71 -119 90 -45
19 -151 27 -205 16z"/>
<path d="M8053 6163 l-52 -4 -3 -72 c-3 -67 -5 -72 -25 -73 -69 -4 -64 1 -61
-61 l3 -58 43 -3 42 -3 0 -152 c0 -167 8 -196 67 -234 32 -21 145 -24 181 -4
20 11 23 19 20 64 l-3 52 -47 0 c-26 0 -53 6 -60 13 -9 9 -13 48 -13 135 l0
122 63 3 62 3 0 58 c0 67 -5 71 -76 71 -24 0 -44 3 -45 8 -9 118 -17 147 -39
140 -3 -1 -28 -3 -57 -5z"/>
<path d="M3147 6135 c-9 -8 -18 -32 -22 -53 -9 -54 -16 -61 -66 -68 -44 -6
-44 -5 -71 40 -34 57 -46 62 -100 45 l-43 -14 0 -69 -1 -68 -42 -25 -42 -25
-52 40 -52 40 -38 -19 c-57 -29 -63 -48 -33 -114 l24 -56 -33 -36 -33 -36 -68
24 -68 24 -28 -35 c-36 -43 -37 -79 -3 -111 42 -39 45 -52 22 -98 l-20 -41
-63 6 c-71 7 -79 1 -91 -74 -6 -40 -5 -41 44 -76 49 -36 50 -37 41 -74 -5 -20
-9 -40 -9 -44 0 -4 -21 -10 -47 -14 -76 -11 -83 -17 -83 -78 0 -64 8 -72 77
-81 l51 -7 10 -50 9 -49 -44 -25 c-57 -34 -64 -49 -46 -108 l14 -49 65 6 65 5
26 -41 c16 -26 22 -45 17 -52 -5 -7 -24 -31 -41 -55 -35 -46 -34 -59 10 -107
24 -27 52 -29 107 -7 l41 17 35 -34 c38 -37 39 -46 10 -112 l-17 -39 36 -34
c45 -42 71 -43 115 -4 41 34 61 37 102 13 29 -17 30 -20 26 -76 -5 -66 7 -84
67 -97 41 -9 57 3 91 66 17 31 23 35 48 30 16 -3 35 -6 42 -6 16 0 28 -24 44
-86 11 -45 36 -58 93 -47 30 6 39 21 57 90 10 40 11 41 57 45 43 3 48 1 62
-25 36 -65 52 -79 84 -73 17 4 42 13 55 22 23 15 24 21 19 75 l-5 60 39 19
c21 11 43 20 49 20 7 0 32 -16 56 -36 l44 -37 41 27 c22 15 43 34 46 43 3 8
-4 38 -16 66 l-21 51 41 42 41 42 55 -24 c61 -27 78 -23 112 25 30 41 26 62
-18 113 l-40 45 26 42 c24 41 27 43 62 36 20 -3 43 -8 52 -11 25 -7 50 19 60
65 9 39 7 47 -12 67 -11 12 -34 28 -50 34 -31 13 -38 45 -20 93 8 20 18 25 62
30 29 4 56 12 61 19 12 20 10 116 -3 124 -7 4 -37 12 -68 18 l-56 11 -6 43
c-5 42 -5 43 43 72 27 17 51 37 55 46 8 21 -27 104 -49 118 -15 9 -33 -4 -114
-84 -52 -52 -100 -103 -105 -113 -6 -11 -6 -31 2 -60 17 -63 14 -222 -6 -296
-47 -179 -181 -354 -343 -451 -189 -111 -433 -132 -629 -53 -312 125 -517 458
-473 770 20 152 77 270 186 393 102 116 226 193 373 232 97 26 249 27 341 3
78 -20 200 -75 247 -111 l34 -25 50 45 c51 46 105 111 128 154 11 20 9 26 -19
52 -41 39 -60 38 -116 -5 -49 -38 -66 -39 -113 -5 -22 16 -24 24 -22 79 l2 61
-35 15 c-59 25 -73 20 -107 -35 -25 -40 -36 -50 -57 -50 -58 0 -70 10 -82 61
-7 28 -19 56 -27 64 -19 19 -87 19 -106 0z"/>
<path d="M2152 5970 c-322 -410 -383 -969 -157 -1436 53 -109 170 -280 213
-310 20 -14 25 -13 62 17 22 18 47 43 55 55 15 23 12 27 -52 113 -163 214
-243 450 -243 716 0 253 75 486 220 680 93 125 92 117 35 175 -27 28 -57 50
-67 50 -10 0 -39 -27 -66 -60z"/>
<path d="M6265 6021 c-39 -10 -68 -26 -86 -47 -13 -16 -14 -15 -19 12 -5 26
-9 29 -49 32 -25 2 -55 1 -68 -3 l-23 -5 0 -260 0 -260 69 0 c54 0 70 4 75 16
3 9 6 87 6 173 0 154 1 159 25 185 34 36 95 39 130 5 18 -18 20 -35 23 -199
l3 -180 70 0 69 0 0 155 c0 166 10 214 48 234 33 18 90 13 112 -9 18 -18 20
-33 20 -187 0 -93 4 -174 9 -181 5 -9 27 -12 72 -10 l64 3 0 195 c0 182 -2
198 -22 240 -34 67 -81 95 -162 95 -69 -1 -114 -17 -149 -55 -19 -20 -19 -20
-38 1 -24 28 -91 59 -124 58 -14 -1 -38 -4 -55 -8z"/>
<path d="M7093 6019 c-58 -11 -94 -31 -136 -78 -112 -124 -75 -362 68 -431 87
-42 183 -36 244 16 l30 25 3 -28 c3 -27 4 -28 68 -28 l65 0 0 260 0 260 -65 0
c-64 0 -65 0 -70 -29 -5 -27 -6 -28 -19 -12 -34 40 -114 60 -188 45z m144
-149 c46 -28 66 -72 60 -134 -12 -125 -173 -168 -237 -64 -23 38 -26 120 -6
156 32 59 122 80 183 42z"/>
<path d="M7557 6013 c-4 -3 -7 -123 -7 -265 l0 -258 70 0 70 0 0 140 c0 200
21 240 130 248 l60 4 0 69 0 69 -47 0 c-49 0 -105 -25 -130 -59 -11 -14 -12
-14 -13 6 0 46 -9 53 -69 53 -32 0 -61 -3 -64 -7z"/>
<path d="M1916 5958 c-153 -240 -237 -531 -237 -823 0 -275 55 -502 178 -736
25 -48 56 -99 68 -115 22 -27 25 -28 40 -13 15 15 12 24 -39 115 -131 235
-196 486 -196 757 0 259 69 504 210 748 42 73 50 92 40 104 -20 24 -28 18 -64
-37z"/>
<path d="M4492 5867 c-11 -13 -5 -31 32 -104 90 -176 139 -364 152 -584 15
-258 -61 -567 -199 -807 -46 -80 -48 -87 -31 -99 15 -11 20 -8 41 20 39 53
130 245 162 344 99 305 105 630 14 917 -28 91 -110 269 -139 305 -17 20 -21
21 -32 8z"/>
<path d="M4312 5686 l-62 -64 28 -59 c55 -113 77 -194 92 -342 29 -282 -74
-621 -255 -841 -25 -30 -45 -58 -45 -62 0 -12 71 -88 93 -99 16 -9 26 -4 59
28 54 53 129 164 182 269 172 347 189 748 46 1092 -23 53 -49 107 -58 120
l-18 23 -62 -65z"/>
<path d="M7685 5358 c-49 -28 -60 -87 -24 -132 16 -21 29 -26 63 -26 69 0 110
63 80 121 -24 47 -75 62 -119 37z"/>
<path d="M5662 5349 c-117 -20 -231 -110 -273 -216 -19 -47 -23 -78 -24 -158
0 -93 2 -105 33 -167 77 -157 250 -230 432 -184 l64 17 47 -47 c33 -33 52 -44
65 -40 20 6 84 63 84 74 0 3 -21 27 -46 53 l-46 46 36 47 c99 131 86 337 -29
465 -45 49 -134 96 -209 110 -66 12 -60 12 -134 0z m188 -173 c59 -39 95 -107
95 -181 0 -65 -28 -145 -51 -145 -7 0 -29 20 -49 44 -20 24 -43 47 -51 50 -9
3 -30 -8 -51 -28 -34 -30 -36 -36 -26 -59 6 -13 25 -40 42 -59 17 -19 28 -38
24 -42 -10 -9 -74 -7 -112 4 -165 47 -215 266 -90 391 47 47 85 59 167 55 47
-3 73 -10 102 -30z"/>
<path d="M7407 5343 c-4 -3 -7 -165 -7 -359 l0 -352 23 -6 c34 -9 86 -7 108 4
18 10 19 25 19 350 0 186 -3 345 -6 354 -5 12 -21 16 -68 16 -35 0 -66 -3 -69
-7z"/>
<path d="M7960 5215 l0 -75 -45 0 c-39 0 -45 -3 -51 -25 -3 -14 -3 -41 0 -60
6 -32 10 -34 49 -37 l42 -3 -3 -85 c-1 -47 0 -118 4 -159 5 -65 10 -78 39
-109 30 -33 38 -36 99 -40 36 -2 81 -1 101 2 l35 7 0 60 0 60 -45 -7 c-36 -5
-50 -3 -65 11 -18 16 -20 32 -20 141 l0 123 63 3 62 3 3 34 c2 19 1 44 -2 57
-6 22 -12 24 -66 24 l-60 0 0 75 0 75 -70 0 -70 0 0 -75z"/>
<path d="M6910 5137 c-49 -16 -133 -102 -148 -153 -31 -104 -7 -231 56 -297
78 -82 216 -98 304 -35 23 16 28 17 28 4 0 -8 9 -20 19 -26 27 -14 104 -13
119 2 13 13 18 461 6 492 -5 12 -21 16 -71 16 -56 0 -66 -3 -70 -20 -5 -20
-23 -28 -23 -11 0 5 -18 16 -40 25 -46 18 -128 19 -180 3z m180 -134 c45 -26
64 -70 58 -136 -3 -42 -11 -64 -28 -82 -30 -31 -82 -49 -125 -41 -41 8 -92 63
-100 109 -12 64 24 141 75 160 31 11 93 6 120 -10z"/>
<path d="M6190 4945 c0 -216 5 -242 59 -288 66 -55 179 -58 251 -7 l30 21 0
-20 c0 -25 28 -34 91 -29 l44 3 3 258 2 258 -72 -3 -73 -3 -5 -167 c-5 -167
-5 -168 -32 -195 -36 -36 -97 -38 -130 -5 -22 21 -23 33 -28 195 l-5 172 -67
3 -68 3 0 -196z"/>
<path d="M7657 5134 c-13 -13 -8 -489 5 -502 13 -13 106 -16 126 -4 9 7 12 65
10 258 l-3 249 -65 3 c-36 2 -69 0 -73 -4z"/>
<path d="M8260 5129 c0 -6 43 -108 96 -227 53 -120 100 -228 106 -241 7 -19 0
-45 -33 -123 -23 -54 -40 -100 -37 -103 11 -11 95 -16 119 -7 21 9 36 32 74
124 26 62 89 212 141 334 52 121 94 228 94 237 0 14 -12 17 -73 17 l-74 0 -16
-37 c-9 -21 -35 -87 -58 -148 -22 -60 -44 -116 -49 -124 -5 -9 -26 33 -60 120
-80 205 -67 189 -155 189 -47 0 -75 -4 -75 -11z"/>
<path d="M5422 4442 c-9 -7 -12 -67 -10 -268 l3 -259 50 0 50 0 5 158 5 159
60 -122 c36 -74 68 -125 79 -129 47 -18 61 -4 127 132 l64 131 5 -164 5 -165
46 -3 c45 -3 47 -2 53 29 8 41 8 290 0 407 l-7 91 -38 6 c-67 12 -74 5 -156
-158 l-76 -152 -78 158 -79 157 -48 0 c-26 0 -53 -4 -60 -8z"/>
<path d="M6175 4290 c-71 -16 -118 -65 -134 -139 -30 -142 58 -261 184 -247
27 3 62 15 77 26 l28 21 0 -21 c0 -19 5 -21 48 -18 l47 3 0 185 0 185 -43 3
c-36 3 -44 0 -49 -16 -5 -20 -6 -20 -36 -2 -40 22 -83 29 -122 20z m126 -119
c65 -65 17 -181 -75 -181 -62 0 -112 87 -86 151 28 66 109 81 161 30z"/>
<path d="M6676 4290 c-15 -5 -36 -16 -46 -25 -16 -15 -18 -14 -23 5 -5 18 -12
21 -49 18 l-43 -3 0 -185 0 -185 48 -3 47 -3 0 119 c0 106 2 122 21 146 16 20
29 26 59 26 61 0 70 -21 70 -167 l0 -123 50 0 50 0 0 141 c0 168 -10 197 -74
229 -45 21 -65 23 -110 10z"/>
<path d="M7054 4290 c-105 -23 -166 -174 -115 -285 22 -48 44 -69 94 -90 49
-20 95 -19 140 4 29 15 37 16 37 5 0 -10 14 -14 50 -14 l50 0 0 190 0 190 -46
0 c-37 0 -47 -4 -51 -20 -5 -19 -6 -19 -32 -1 -31 22 -83 31 -127 21z m130
-115 c79 -85 -15 -228 -115 -175 -27 15 -49 62 -49 105 0 82 110 129 164 70z"/>
<path d="M7490 4284 c-68 -29 -103 -77 -115 -155 -24 -162 144 -285 269 -196
l29 21 -6 -40 c-13 -82 -90 -107 -175 -58 l-44 26 -30 -29 -29 -30 35 -31 c84
-74 238 -62 305 24 35 44 42 94 39 286 l-3 183 -47 3 c-42 3 -48 1 -48 -16 0
-18 -2 -18 -47 4 -53 28 -84 29 -133 8z m151 -113 c23 -23 29 -38 29 -71 0
-35 -6 -48 -35 -77 -32 -32 -40 -35 -73 -30 -24 4 -47 17 -66 38 -24 28 -28
38 -23 76 7 63 38 93 95 93 35 0 49 -6 73 -29z"/>
<path d="M7959 4291 c-82 -27 -129 -96 -129 -190 0 -124 74 -201 194 -201 56
0 93 14 128 47 l28 27 -22 23 c-26 28 -31 28 -85 2 -37 -18 -48 -19 -78 -9
-35 11 -65 43 -65 67 0 9 36 13 138 15 l137 3 -3 49 c-3 63 -35 118 -83 145
-43 24 -120 35 -160 22z m106 -87 c8 -4 22 -19 31 -35 l15 -29 -91 0 c-97 0
-106 6 -68 47 22 23 75 31 113 17z"/>
<path d="M8270 4100 l0 -190 44 0 c41 0 44 2 50 31 3 17 6 70 6 118 1 52 5 92
13 102 17 22 52 39 81 39 27 0 42 29 34 67 -6 31 -69 29 -107 -2 l-31 -27 0
26 c0 24 -3 26 -45 26 l-45 0 0 -190z"/>
<path d="M2340 4194 l-55 -56 49 -44 c66 -61 198 -147 288 -188 140 -65 324
-116 435 -119 l48 -2 3 73 c2 42 -2 79 -8 87 -6 7 -33 15 -61 19 -179 24 -421
125 -553 231 -38 30 -75 55 -81 55 -6 0 -35 -25 -65 -56z"/>
<path d="M3911 4186 c-143 -110 -328 -189 -515 -221 -49 -8 -90 -15 -92 -15
-9 0 -3 -159 6 -165 18 -11 174 17 285 52 189 60 410 183 510 284 l20 20 -58
55 c-32 30 -61 54 -65 54 -4 -1 -45 -29 -91 -64z"/>
<path d="M4276 4188 c-25 -7 -58 -29 -87 -58 -38 -38 -49 -57 -58 -101 -29
-137 70 -259 207 -259 65 0 112 19 153 61 42 43 59 87 59 154 0 143 -134 242
-274 203z"/>
<path d="M1960 4168 c-119 -64 -147 -223 -57 -324 48 -56 99 -77 173 -72 80 5
137 42 172 111 51 97 24 206 -66 271 -36 25 -55 31 -110 34 -56 3 -74 0 -112
-20z"/>
<path d="M3186 3934 c-8 -20 -8 -112 0 -141 4 -13 13 -23 20 -23 11 0 14 20
14 90 0 70 -3 90 -14 90 -8 0 -17 -7 -20 -16z"/>
<path d="M2339 3884 c-17 -21 4 -37 131 -103 152 -79 310 -135 436 -156 33 -5
43 -3 48 10 9 24 1 32 -40 40 -133 24 -337 102 -475 181 -43 24 -80 44 -82 44
-3 0 -11 -7 -18 -16z"/>
<path d="M3960 3854 c-104 -61 -269 -129 -396 -163 -60 -15 -109 -32 -111 -37
-1 -5 1 -15 6 -22 6 -11 28 -8 112 13 159 40 343 117 461 191 34 22 37 26 26
44 -7 11 -15 20 -18 19 -3 0 -39 -20 -80 -45z"/>
<path d="M3110 3665 c-77 -35 -120 -103 -120 -190 0 -130 111 -229 238 -211
193 26 253 268 94 380 -36 25 -54 31 -110 33 -45 2 -79 -2 -102 -12z"/>
</g>
</svg>
